<svg xmlns="http://www.w3.org/2000/svg" width="24" height="24" viewBox="0 0 24 24" fill="none" stroke="currentColor" stroke-width="2" stroke-linecap="round" stroke-linejoin="round">
  <path d="M2 22l10-10M12 12l10 10M19.5 4.5a2.5 2.5 0 1 0 0-5 2.5 2.5 0 0 0 0 5z"/>
  <path d="M2.5 19.5a2.5 2.5 0 1 0 0 5 2.5 2.5 0 0 0 0-5z"/>
  <path d="M21.5 19.5a2.5 2.5 0 1 0 0 5 2.5 2.5 0 0 0 0-5z"/>
  <path d="M12 7.5a2.5 2.5 0 1 0 0-5 2.5 2.5 0 0 0 0 5z"/>
  <path d="M12 22V12"/>
  <path d="M4.5 12.5a2.5 2.5 0 1 0 0-5 2.5 2.5 0 0 0 0 5z"/>
</svg> 